<?xml version="1.0" encoding="utf-8"?><!-- Uploaded to: SVG Repo, www.svgrepo.com, Generator: SVG Repo Mixer Tools -->
<svg fill="#000000" width="800px" height="800px" viewBox="0 0 24 24" id="sign-out-double-arrow-left" data-name="Flat Color" xmlns="http://www.w3.org/2000/svg" class="icon flat-color"><path id="secondary" d="M6.71,14.29a1,1,0,0,1,0,1.42,1,1,0,0,1-1.42,0l-3-3a1,1,0,0,1,0-1.42l3-3A1,1,0,0,1,6.71,9.71L4.41,12ZM17,11H10.41l1.3-1.29a1,1,0,0,0-1.42-1.42l-3,3a1,1,0,0,0,0,1.42l3,3a1,1,0,0,0,1.42,0,1,1,0,0,0,0-1.42L10.41,13H17a1,1,0,0,0,0-2Z" style="fill: rgb(44, 169, 188);"></path><path id="primary" d="M20,22H11a2,2,0,0,1-2-2V19a1,1,0,0,1,2,0v1h9V4H11V5A1,1,0,0,1,9,5V4a2,2,0,0,1,2-2h9a2,2,0,0,1,2,2V20A2,2,0,0,1,20,22Z" style="fill: rgb(0, 0, 0);"></path></svg>